<svg width="32" height="32" viewBox="0 0 32 32" fill="none" xmlns="http://www.w3.org/2000/svg">
<path d="M10.5787 26.9219C9.72774 26.9124 8.8848 26.7564 8.08687 26.4606C7.50419 26.2452 6.97701 25.9023 6.54387 25.457C6.09735 25.0247 5.75396 24.4974 5.53921 23.9142C5.24367 23.1163 5.08782 22.2734 5.07851 21.4226C5.01316 20.0082 5 19.5839 5 15.9999C5 12.4159 5.01445 11.9931 5.07786 10.5776C5.08831 9.7271 5.24434 8.88468 5.53921 8.08687C5.75501 7.50409 6.09791 6.9767 6.543 6.543C6.97561 6.09689 7.50304 5.75382 8.08622 5.53921C8.88415 5.24342 9.72709 5.08736 10.578 5.07786C11.9929 5.01316 12.4178 5 15.9999 5C19.582 5 20.0067 5.01445 21.4222 5.07786C22.2729 5.08823 23.1155 5.24427 23.9136 5.53921C24.4965 5.7541 25.0238 6.09705 25.4566 6.54279C25.9024 6.97572 26.2455 7.50314 26.4606 8.08622C26.7564 8.88414 26.9126 9.72708 26.9221 10.578C26.9868 11.9936 27 12.4174 27 16.0003C27 19.5833 26.9868 20.0071 26.9221 21.4226C26.9119 22.2734 26.7558 23.1162 26.4606 23.9142C26.2373 24.4929 25.8953 25.0185 25.4566 25.457C25.018 25.8956 24.4923 26.2374 23.9136 26.4606C23.1156 26.7564 22.2727 26.9126 21.4218 26.9221C20.0075 26.9868 19.5824 27 15.9995 27C12.4165 27 11.9927 26.9875 10.5785 26.9221" fill="url(#paint0_radial_864_607)"/>
<path d="M10.5787 26.9219C9.72774 26.9124 8.8848 26.7564 8.08687 26.4606C7.50419 26.2452 6.97701 25.9023 6.54387 25.457C6.09735 25.0247 5.75396 24.4974 5.53921 23.9142C5.24367 23.1163 5.08782 22.2734 5.07851 21.4226C5.01316 20.0082 5 19.5839 5 15.9999C5 12.4159 5.01445 11.9931 5.07786 10.5776C5.08831 9.7271 5.24434 8.88468 5.53921 8.08687C5.75501 7.50409 6.09791 6.9767 6.543 6.543C6.97561 6.09689 7.50304 5.75382 8.08622 5.53921C8.88415 5.24342 9.72709 5.08736 10.578 5.07786C11.9929 5.01316 12.4178 5 15.9999 5C19.582 5 20.0067 5.01445 21.4222 5.07786C22.2729 5.08823 23.1155 5.24427 23.9136 5.53921C24.4965 5.7541 25.0238 6.09705 25.4566 6.54279C25.9024 6.97572 26.2455 7.50314 26.4606 8.08622C26.7564 8.88414 26.9126 9.72708 26.9221 10.578C26.9868 11.9936 27 12.4174 27 16.0003C27 19.5833 26.9868 20.0071 26.9221 21.4226C26.9119 22.2734 26.7558 23.1162 26.4606 23.9142C26.2373 24.4929 25.8953 25.0185 25.4566 25.457C25.018 25.8956 24.4923 26.2374 23.9136 26.4606C23.1156 26.7564 22.2727 26.9126 21.4218 26.9221C20.0075 26.9868 19.5824 27 15.9995 27C12.4165 27 11.9927 26.9875 10.5785 26.9221" fill="url(#paint1_radial_864_607)"/>
<path d="M13.3337 15.9992C13.3337 15.4718 13.4902 14.9562 13.7832 14.5177C14.0763 14.0792 14.4928 13.7375 14.9801 13.5357C15.4674 13.3339 16.0036 13.2812 16.5208 13.3841C17.0381 13.4871 17.5132 13.7411 17.8861 14.1141C18.259 14.487 18.5129 14.9622 18.6158 15.4795C18.7186 15.9968 18.6657 16.5329 18.4638 17.0201C18.2619 17.5074 17.9201 17.9238 17.4815 18.2167C17.0429 18.5097 16.5273 18.666 15.9999 18.6659C15.2927 18.6658 14.6145 18.3848 14.1145 17.8847C13.6145 17.3846 13.3336 16.7063 13.3337 15.9992ZM11.892 15.9992C11.892 16.8116 12.1329 17.6058 12.5843 18.2813C13.0357 18.9568 13.6772 19.4833 14.4279 19.7942C15.1785 20.1052 16.0045 20.1865 16.8013 20.028C17.5982 19.8695 18.3301 19.4783 18.9046 18.9038C19.4791 18.3293 19.8704 17.5974 20.0289 16.8005C20.1874 16.0037 20.1061 15.1778 19.7951 14.4272C19.4842 13.6766 18.9577 13.035 18.2821 12.5837C17.6066 12.1323 16.8124 11.8914 15.9999 11.8914C15.4604 11.8914 14.9262 11.9976 14.4278 12.204C13.9294 12.4104 13.4765 12.713 13.0951 13.0945C12.7136 13.4759 12.411 13.9288 12.2046 14.4271C11.9982 14.9255 11.8919 15.4597 11.892 15.9992ZM19.3104 11.7286C19.3104 11.9185 19.3666 12.1041 19.472 12.262C19.5774 12.4199 19.7273 12.543 19.9026 12.6157C20.078 12.6885 20.271 12.7076 20.4573 12.6706C20.6435 12.6336 20.8146 12.5423 20.9489 12.4081C21.0832 12.2739 21.1747 12.1029 21.2118 11.9167C21.2489 11.7305 21.23 11.5375 21.1574 11.3621C21.0849 11.1867 20.9619 11.0367 20.8041 10.9311C20.6462 10.8256 20.4607 10.7692 20.2708 10.7691C20.0163 10.7692 19.7723 10.8703 19.5923 11.0503C19.4123 11.2302 19.3111 11.4741 19.3109 11.7286M12.7683 22.5108C12.261 22.5053 11.7585 22.4124 11.2827 22.2364C10.9376 22.1034 10.6242 21.8996 10.3627 21.6382C10.1011 21.3768 9.89724 21.0635 9.7641 20.7185C9.58798 20.2428 9.49514 19.7402 9.48965 19.2329C9.4508 18.3898 9.4432 18.1364 9.4432 16.0002C9.4432 13.864 9.45165 13.6113 9.48965 12.7673C9.4958 12.2601 9.58862 11.7576 9.7641 11.2817C9.89709 10.9365 10.1009 10.6231 10.3625 10.3616C10.624 10.1 10.9375 9.89617 11.2827 9.76319C11.7584 9.58708 12.261 9.49424 12.7683 9.48875C13.6115 9.4499 13.8649 9.4423 16.0003 9.4423C18.1358 9.4423 18.3893 9.45054 19.2334 9.48896C19.7406 9.49511 20.2431 9.58793 20.719 9.7634C21.0642 9.89639 21.3776 10.1002 21.6392 10.3618C21.9007 10.6233 22.1046 10.9368 22.2376 11.2819C22.4137 11.7577 22.5065 12.2602 22.512 12.7675C22.5509 13.6119 22.5585 13.864 22.5585 16.0004C22.5585 18.1369 22.5507 18.3893 22.512 19.2334C22.5061 19.7406 22.4133 20.2431 22.2376 20.7189C22.1044 21.0639 21.9005 21.3772 21.639 21.6386C21.3775 21.9001 21.0641 22.1038 20.719 22.2368C20.2432 22.4129 19.7407 22.5058 19.2334 22.5113C18.3902 22.5501 18.1368 22.5577 16.0003 22.5577C13.8638 22.5577 13.6113 22.5499 12.7683 22.5113M12.702 8.04834C12.0382 8.0614 11.3815 8.18703 10.7597 8.41989C10.2282 8.62538 9.74556 8.93966 9.34263 9.34258C8.9397 9.74549 8.62541 10.2282 8.41991 10.7596C8.18707 11.3813 8.06143 12.0381 8.04835 12.7018C8.00887 13.5547 8 13.8275 8 16C8 18.1725 8.00908 18.4451 8.04835 19.2982C8.06143 19.9619 8.18706 20.6187 8.41991 21.2404C8.62542 21.7718 8.93971 22.2545 9.34264 22.6574C9.74557 23.0603 10.2283 23.3746 10.7597 23.5801C11.3815 23.8129 12.0382 23.9385 12.702 23.9517C13.5554 23.9905 13.8277 24 16.0003 24C18.1729 24 18.4455 23.9909 19.2986 23.9517C19.9624 23.9385 20.6191 23.8129 21.2409 23.5801C21.7724 23.3746 22.2551 23.0603 22.658 22.6574C23.0609 22.2545 23.3752 21.7718 23.5807 21.2404C23.8139 20.6187 23.9395 19.962 23.9523 19.2982C23.9911 18.4446 24 18.1725 24 16C24 13.8275 23.9909 13.5549 23.9523 12.7018C23.9392 12.0381 23.8136 11.3813 23.5807 10.7596C23.3752 10.2283 23.061 9.74567 22.6582 9.34276C22.2554 8.93986 21.7729 8.62552 21.2415 8.41989C20.6198 8.18688 19.9631 8.06124 19.2992 8.04834C18.4461 8.00929 18.1736 8 16.0014 8C13.8292 8 13.556 8.00908 12.7024 8.04834" fill="white"/>
<defs>
<radialGradient id="paint0_radial_864_607" cx="0" cy="0" r="1" gradientUnits="userSpaceOnUse" gradientTransform="translate(6.42373 26.5179) scale(27.9315)">
<stop offset="0.09" stop-color="#FA8F21"/>
<stop offset="0.78" stop-color="#D82D7E"/>
</radialGradient>
<radialGradient id="paint1_radial_864_607" cx="0" cy="0" r="1" gradientUnits="userSpaceOnUse" gradientTransform="translate(20.2385 25.8114) scale(24.58)">
<stop offset="0.64" stop-color="#8C3AAA" stop-opacity="0"/>
<stop offset="1" stop-color="#8C3AAA"/>
</radialGradient>
</defs>
</svg>
