<svg width="22" height="22" viewBox="0 0 22 22" fill="none" xmlns="http://www.w3.org/2000/svg">
<path d="M14.2785 0.333496H7.73398C1.75618 0.333496 0.333984 1.75569 0.333984 7.72236V14.2668C0.333984 20.2446 1.74512 21.6668 7.72285 21.6668H14.2673C20.2451 21.6668 21.6673 20.2557 21.6673 14.2779V7.7335C21.6673 1.75569 20.2562 0.333496 14.2785 0.333496ZM17.5562 15.5557H16.0007C15.4118 15.5557 15.234 15.0779 14.1785 14.0224C13.2562 13.1335 12.8673 13.0224 12.634 13.0224C12.3118 13.0224 12.2228 13.1112 12.2228 13.5557V14.9557C12.2228 15.3335 12.1007 15.5557 11.1118 15.5557C10.1522 15.4912 9.22166 15.1997 8.39679 14.7052C7.57193 14.2106 6.87634 13.5272 6.36732 12.7112C5.1589 11.2071 4.3181 9.44183 3.91179 7.55569C3.91179 7.32236 4.00065 7.11123 4.44512 7.11123H6.00065C6.40065 7.11123 6.54512 7.28903 6.70065 7.70016C7.45618 9.92236 8.74512 11.8557 9.26732 11.8557C9.46732 11.8557 9.55618 11.7668 9.55618 11.2668V8.9779C9.48952 7.9335 8.93398 7.84457 8.93398 7.46683C8.9413 7.36717 8.98717 7.27428 9.06185 7.20789C9.13653 7.1415 9.23415 7.10683 9.33398 7.11123H11.7785C12.1118 7.11123 12.2228 7.2779 12.2228 7.6779V10.7668C12.2228 11.1002 12.3673 11.2112 12.4673 11.2112C12.6673 11.2112 12.8228 11.1002 13.1895 10.7335C13.9775 9.77262 14.6213 8.70212 15.1007 7.55569C15.1496 7.41775 15.2423 7.29962 15.3647 7.21936C15.4871 7.1391 15.6324 7.10112 15.7785 7.11123H17.334C17.8007 7.11123 17.9007 7.34457 17.8007 7.6779C17.2346 8.94543 16.5344 10.1486 15.7118 11.2668C15.5451 11.5224 15.4785 11.6557 15.7118 11.9557C15.8673 12.189 16.4118 12.6446 16.7785 13.0779C17.3118 13.6099 17.7546 14.2254 18.0895 14.9002C18.2228 15.3335 18.0007 15.5557 17.5562 15.5557Z" fill="#0077FF"/>
</svg>
