<svg width="30" height="22" viewBox="0 0 30 22" fill="none" xmlns="http://www.w3.org/2000/svg">
<path d="M29.6674 7.94665C29.7333 6.03818 29.3159 4.144 28.454 2.43998C27.8692 1.74078 27.0576 1.26893 26.1607 1.10665C22.4507 0.770012 18.7254 0.632038 15.0007 0.693312C11.2895 0.629257 7.57763 0.762779 3.88069 1.09331C3.14978 1.22627 2.47338 1.5691 1.93402 2.07998C0.73402 3.18665 0.600687 5.07998 0.467353 6.67998C0.273903 9.55673 0.273903 12.4432 0.467353 15.32C0.505927 16.2205 0.640012 17.1144 0.867353 17.9866C1.02812 18.6601 1.35338 19.2831 1.81402 19.8C2.35704 20.3379 3.0492 20.7003 3.80069 20.84C6.67524 21.1948 9.57164 21.3419 12.4674 21.28C17.134 21.3466 21.2274 21.28 26.0674 20.9066C26.8373 20.7755 27.5489 20.4127 28.1074 19.8666C28.4806 19.4932 28.7595 19.0361 28.9207 18.5333C29.3975 17.0701 29.6317 15.5388 29.614 14C29.6674 13.2533 29.6674 8.74665 29.6674 7.94665ZM11.9874 14.8V6.54665L19.8807 10.6933C17.6674 11.92 14.7474 13.3066 11.9874 14.8Z" fill="#FF0000"/>
</svg>
